<svg width="120" height="120" viewBox="0 0 120 120" fill="none" xmlns="http://www.w3.org/2000/svg">
<path opacity="0.4" d="M80.95 10H39.1C20.85 10 10 20.85 10 39.05V80.9C10 99.1 20.85 109.95 39.05 109.95H80.9C99.1 109.95 109.95 99.1 109.95 80.9V39.05C110 20.85 99.15 10 80.95 10Z" fill="white"/>
<path d="M90 53.55C89.2 53.55 88.4 53.3 87.7 52.75C70.85 39.75 49.1 39.75 32.3 52.75C30.65 54 28.3 53.7 27.05 52.1C25.8 50.45 26.1 48.1 27.7 46.85C47.3 31.7 72.65 31.7 92.3 46.85C93.95 48.1 94.25 50.45 92.95 52.1C92.25 53.05 91.1 53.55 90 53.55Z" fill="white"/>
<path d="M82 69C81.2 69 80.4 68.75 79.7 68.2C67.7 58.95 52.25 58.95 40.25 68.2C38.6 69.45 36.25 69.15 35 67.55C33.75 65.95 34.05 63.55 35.65 62.3C50.4 50.9 69.5 50.9 84.25 62.3C85.9 63.55 86.2 65.9 84.9 67.55C84.25 68.5 83.15 69 82 69Z" fill="white"/>
<path d="M71 84.45C70.2 84.45 69.4 84.2 68.7 83.65C63.4 79.55 56.55 79.55 51.25 83.65C49.6 84.9 47.25 84.6 46 83C44.75 81.35 45.05 79 46.65 77.75C54.6 71.6 65.3 71.6 73.25 77.75C74.9 79 75.2 81.35 73.9 83C73.25 83.95 72.15 84.45 71 84.45Z" fill="white"/>
</svg>
