<svg width="54" height="60" viewBox="0 0 54 60" fill="none" xmlns="http://www.w3.org/2000/svg">
<path d="M20.3333 10L20.3333 21.9052L1.17291 32.8531C0.917814 32.9991 0.705817 33.2099 0.558382 33.4642C0.410947 33.7184 0.333309 34.0071 0.333327 34.301L0.333327 41.124C0.333327 42.2313 1.3927 43.0302 2.45729 42.726L20.3333 37.6188L20.3333 48.3333L14.3333 52.8333C13.9135 53.1479 13.6667 53.6427 13.6667 54.1667L13.6667 58.3323C13.6667 59.4167 14.6854 60.2125 15.7375 59.949L27 56.6667L38.2625 59.949C39.3146 60.2125 40.3333 59.4167 40.3333 58.3323L40.3333 54.1667C40.3333 53.6417 40.0865 53.1479 39.6667 52.8333L33.6667 48.3333L33.6667 37.6188L51.5417 42.726C52.6062 43.0302 53.6667 42.2312 53.6667 41.124L53.6667 34.301C53.6667 33.7031 53.3458 33.151 52.8271 32.8542L33.6667 21.9052L33.6667 10C33.6667 6.31771 30.6823 -1.3266e-06 27 -1.16564e-06C23.3177 -1.00468e-06 20.3333 6.31771 20.3333 10Z" fill="white"/>
</svg>
